<svg xmlns="http://www.w3.org/2000/svg" viewBox="0 0 584.87 172.08"><defs><style>.cls-1{fill:#818385;}</style></defs><title>Asset 4</title><g id="Layer_2" data-name="Layer 2"><g id="Layer_1-2" data-name="Layer 1"><path class="cls-1" d="M9.07,80.06a7.45,7.45,0,0,1,7.13-4.87c5.41,0,9.42,4.76,9.42,11.19C25.62,93,21.56,98,16,98c-3.16,0-5.25-1.34-7-4.56v4H1.36v-1H5.11V61H1.36V60H9.07Zm11.62,3.7c0-5.14-1.45-7.34-4.88-7.34a6.4,6.4,0,0,0-5.62,3.75,12.19,12.19,0,0,0-1.23,6c0,3.74.64,6.42,2,8.14a6.48,6.48,0,0,0,4.93,2.57c2.19,0,3.74-1.34,4.44-3.75a19.75,19.75,0,0,0,.38-4.87Z"/><path class="cls-1" d="M47.6,76.74H43.74v-1H51.3v1H48.89L38.22,106.8c-1.44,4.24-3.05,6-5.41,6a2.85,2.85,0,0,1-3-2.95,2.41,2.41,0,0,1,2.3-2.63A2.16,2.16,0,0,1,34,108.26c.48.69.75.85,1.24.85.64,0,1.12-.7,1.87-2.89l3.11-8.78L30.93,76.74H28.25v-1H39.39v1H35.48l6.65,15.54Z"/><path class="cls-1" d="M132.37,27h-2c-1.42-7.07-2.83-10.32-6.08-14A29.17,29.17,0,0,0,101.84,3C89.11,3,79.93,9.34,77.1,20.36c-1.55,5.79-2.27,16.4-2.27,32.94,0,20.35,1.14,28.41,4.53,34.35,4,6.64,12.44,10.89,21.77,10.89a28.54,28.54,0,0,0,22.76-11.32c2.83-3.67,4.38-7.07,6.5-14.55h2V100h-2l-4.81-7.35c-9.75,6.5-16.12,8.9-24.59,8.9-11.74,0-22.91-6.08-31-16.83-7.21-9.61-10.6-20.21-10.6-33.08,0-14.42,4.1-26.71,12-36.19C79.78,5.38,90.39,0,102,0c8.92,0,14.86,2.27,23.61,8.91l4.81-7.49h2Z"/><path class="cls-1" d="M220.9,17c6.64,9.05,10.18,20.51,10.18,33.65,0,15.12-4.53,27.85-13.15,37.31-8.2,8.91-17.8,13.43-28.41,13.43-12.16,0-23.33-6.07-31.53-17-6.78-9.05-10.17-20.5-10.17-33.79,0-15,4.52-27.85,13.15-37.19,8.2-9,17.81-13.42,29-13.42,11.6,0,22.91,6.22,31,17m-55.84,3.54c-1.56,5.52-1.84,11.17-1.84,30.11,0,22.62.56,28.28,3.26,34.35,3.67,8.34,12.44,13.43,23,13.43,12.29,0,21.35-6.5,24.31-17.53,1.56-5.52,1.84-11,1.84-31.1,0-21.49-.56-27.42-3.25-33.37C208.73,7.92,200,3,189.09,3c-12,0-21.21,6.65-24,17.53"/><path class="cls-1" d="M244.53,100V97.27h13V4.11h-13V1.43h38.59V4.11h-13V97.27H292c15.69,0,21.48-6.37,25.15-27.56h2l-2,30.25Z"/><path class="cls-1" d="M404.29,17c6.64,9.05,10.18,20.51,10.18,33.65,0,15.12-4.52,27.85-13.15,37.31-8.2,8.91-17.82,13.43-28.42,13.43-12.15,0-23.33-6.07-31.53-17-6.78-9.05-10.17-20.5-10.17-33.79,0-15,4.52-27.85,13.15-37.19,8.2-9,17.81-13.42,29-13.42,11.6,0,22.9,6.22,31,17m-55.84,3.54c-1.56,5.52-1.84,11.17-1.84,30.11,0,22.62.56,28.28,3.25,34.35,3.67,8.34,12.44,13.43,23,13.43,12.3,0,21.36-6.5,24.32-17.53,1.56-5.52,1.84-11,1.84-31.1,0-21.49-.56-27.42-3.25-33.37C392.13,7.92,383.37,3,372.49,3c-12,0-21.2,6.65-24,17.53"/><path class="cls-1" d="M453.52,97.28h13.85V100H427.93V97.28h13V4.11h-13V1.42h40c14.28,0,20.36,1.28,26,5.38A20.45,20.45,0,0,1,502.43,24c0,7.77-3.95,14.56-11,18.8-5.23,3.25-8.06,4-19.08,5.38,8.9,1.84,11.59,2.68,15.55,5.23,7.21,4.8,11.31,13,11.31,22.48v8.19c0,5.37.43,7.78,1.56,9.76s3.81,3.53,6.78,3.53a12.66,12.66,0,0,0,5.8-1.41l.71,2.26a18.24,18.24,0,0,1-9.9,2.41c-6.51,0-11.45-2.41-15-7.49-3.12-4.24-4.39-9.47-4.39-17.53V68.43c0-6.93-2.27-12.72-6.22-15.55-3.38-2.4-9.18-3.81-15.27-3.81h-9.75ZM464,46.38c16.54,0,24.46-6.79,24.46-21.06,0-14.85-7.07-21.2-23.6-21.2H453.52V46.38Z"/><path class="cls-1" d="M578.79,25.6h-2.27c-.85-6.08-1.84-9.33-4.24-12.72A23.12,23.12,0,0,0,553.2,3.12c-11.59,0-20.08,8.06-20.08,19.23,0,8.34,4.81,12.87,17,16.26l13,3.39c8.06,2.27,11.73,4.39,15.55,9.2,4.1,4.94,6.22,11.31,6.22,18.65a35.91,35.91,0,0,1-7.5,22.49c-4.94,6.07-12.16,9.19-21.49,9.19a32.35,32.35,0,0,1-23.18-9.33L527.62,100h-2l-1-30.54h2.27a53.53,53.53,0,0,0,4.52,15.12c4.52,8.35,14.27,14,24.31,14,13.29,0,22.2-9,22.2-22.34,0-10.32-5.94-16.67-18.8-20.2l-11.59-3c-14.43-3.82-21.07-11.74-21.07-25,0-16.27,11.17-28,26.44-28,6.92,0,12.86,2,19.23,6.37L576.53.15h2Z"/><path class="cls-1" d="M4.69,122.89H0v-1H13.93v1H9.23v33.62h4.7v1H0v-1H4.69ZM30.2,156.52h3v1H19.33v-1h4.8l-13.67-18,14.09-15.61H19.64v-1H30.81v1H26.17L14.49,135.75Z"/><path class="cls-1" d="M48.87,137.79H45.19v-1h7.2v1h-2.3L39.94,166.42c-1.37,4-2.9,5.66-5.15,5.66a2.72,2.72,0,0,1-2.86-2.81,2.3,2.3,0,0,1,2.19-2.5,2,2,0,0,1,1.84,1c.46.65.72.81,1.17.81.62,0,1.07-.66,1.79-2.76l3-8.37L33,137.79H30.45v-1H41.07v1H37.34l6.33,14.79Z"/><path class="cls-1" d="M75.65,147.13c0,6.18-4.49,10.92-10.41,10.92a9.41,9.41,0,0,1-7.15-3,11.3,11.3,0,0,1-3.16-7.91,11,11,0,0,1,3.16-7.85,9.6,9.6,0,0,1,7.34-3c5.67,0,10.21,4.79,10.21,10.82m-16,1.33c0,3.62.25,5.51.92,6.43A5.55,5.55,0,0,0,65.25,157c2.44,0,4.33-1,5.1-2.7a20.09,20.09,0,0,0,.61-5.81v-2.61c0-3.47-.3-5.41-1-6.43a5.74,5.74,0,0,0-4.75-2c-2.4,0-4.34,1-5.06,2.7a19.74,19.74,0,0,0-.56,5.77Z"/><path class="cls-1" d="M86.47,152.69c0,2.61.87,3.68,2.86,3.68,1.74,0,2.7-.87,3.12-2.81h1c-.62,3.12-2.3,4.49-5.46,4.49-2.09,0-3.57-.66-4.44-2-.66-1-.86-2.09-.86-4.54V137.79H79.22V137c2.86-1.18,6.13-5.36,6.73-8.62h.51v8.46h5.77v1H86.47Z"/><path class="cls-1" d="M116.57,147.13c0,6.18-4.49,10.92-10.41,10.92a9.37,9.37,0,0,1-7.13-3,11.27,11.27,0,0,1-3.17-7.91A11,11,0,0,1,99,139.32a9.57,9.57,0,0,1,7.33-3c5.67,0,10.21,4.79,10.21,10.82m-16,1.33c0,3.62.25,5.51.92,6.43a5.55,5.55,0,0,0,4.68,2.09c2.45,0,4.34-1,5.11-2.7a20.09,20.09,0,0,0,.61-5.81v-2.61c0-3.47-.3-5.41-1-6.43a5.74,5.74,0,0,0-4.76-2c-2.39,0-4.33,1-5.05,2.7a19.74,19.74,0,0,0-.56,5.77Z"/><path class="cls-1" d="M142.64,139.42a9.84,9.84,0,0,1,7.6-3.11c2.91,0,4.64.91,5.82,3.05a9.42,9.42,0,0,1,7.19-3.05,6.35,6.35,0,0,1,4.75,1.63c.87.92,1.17,2,1.17,4.18v14.39h3.57v1h-11v-1h3.62v-15c0-2.7-1.12-3.93-3.62-3.93a5.71,5.71,0,0,0-5.06,3c-.61,1.23-.76,2.4-.76,5.92v10h3.63v1h-11v-1h3.63v-15c0-2.4-1.38-3.93-3.63-3.93a5.84,5.84,0,0,0-5.31,3.42c-.46,1.22-.61,2.75-.61,6.43v9.08h3.62v1h-11v-1h3.58V137.79h-3.58v-1h7.35Z"/><path class="cls-1" d="M194.93,150.55c-.92,4.9-3.89,7.5-8.52,7.5a9.23,9.23,0,0,1-7.14-3.06,11.66,11.66,0,0,1-3-7.92,11.12,11.12,0,0,1,2.4-7,8.78,8.78,0,0,1,7.45-3.73c5.1,0,8.78,3.67,9,9H180.95v4.08c0,3.21.3,4.54,1.28,5.81a5.38,5.38,0,0,0,4.24,1.78c3.88,0,6.38-2.24,7.24-6.42ZM190.49,142c0-3.21-1.38-4.65-4.54-4.65-3.42,0-5,1.59-5,5v1.93h9.55Z"/><path class="cls-1" d="M218.2,150.55c-.92,4.9-3.89,7.5-8.52,7.5a9.23,9.23,0,0,1-7.14-3.06,11.66,11.66,0,0,1-3-7.92,11.12,11.12,0,0,1,2.4-7,8.78,8.78,0,0,1,7.45-3.73c5.1,0,8.78,3.67,9,9H204.21v4.08c0,3.21.3,4.54,1.28,5.81a5.38,5.38,0,0,0,4.24,1.78c3.88,0,6.38-2.24,7.24-6.42ZM213.75,142c0-3.21-1.38-4.65-4.54-4.65-3.42,0-5,1.59-5,5v1.93h9.55Z"/><path class="cls-1" d="M229,152.69c0,2.61.87,3.68,2.86,3.68,1.73,0,2.7-.87,3.12-2.81h1c-.61,3.12-2.3,4.49-5.46,4.49-2.08,0-3.56-.66-4.43-2-.66-1-.87-2.09-.87-4.54V137.79H221.7V137c2.87-1.18,6.13-5.36,6.74-8.62H229v8.46h5.77v1H229Z"/><path class="cls-1" d="M252,142.58h-.87a5.66,5.66,0,0,0-6-5.2c-2.61,0-4.7,1.68-4.7,3.78,0,1.63,1,2.3,4.34,3l2.4.47c4,.81,6,2.9,6,6.53,0,4.14-2.6,6.89-6.53,6.89a8.18,8.18,0,0,1-6-2.5l-1.17,2H239v-7.91h.87a10.16,10.16,0,0,0,.91,3.37,6.63,6.63,0,0,0,6,4c2.8,0,4.89-1.89,4.89-4.45,0-1.63-1.07-2.6-3.47-3.05l-4.18-.87c-3.38-.66-5-2.61-5-6a6,6,0,0,1,6.38-6.28,8,8,0,0,1,5.21,2l.71-1.88H252Z"/><path class="cls-1" d="M277.52,156.52h5.41V122.89H280a6.74,6.74,0,0,0-6.79,4.29,36,36,0,0,0-2,5.87l-.77-.05.72-11.08h28.11L300,133l-.76.05a36.65,36.65,0,0,0-2-5.87,6.74,6.74,0,0,0-6.79-4.29h-2.91v33.62h5.41v1H277.52Z"/><path class="cls-1" d="M311.65,140.9c0-2.35-1.33-3.56-3.92-3.56-2,0-4.5,1.07-4.5,2,0,.15,0,.21.66,1a2,2,0,0,1,.56,1.43,1.93,1.93,0,0,1-1.94,2c-1.12,0-1.89-.91-1.89-2.3,0-2.85,3.47-5.19,7.66-5.19a8.63,8.63,0,0,1,5.66,1.73c1.12,1,1.49,2.1,1.49,4.39v12c0,1.69.35,2.25,1.42,2.25.56,0,.92-.15,1.68-.81l.47.66c-1.69,1.27-2.25,1.53-3.52,1.53A3.46,3.46,0,0,1,312,155.6a8,8,0,0,1-.36-2,7.25,7.25,0,0,1-6.93,4.44c-3.38,0-5.46-1.93-5.46-5s2.4-5.56,6.12-6.43a26.25,26.25,0,0,1,6.33-.61Zm0,6a13.59,13.59,0,0,0-5.05.76c-2.44.87-3.63,2.45-3.63,4.65a3.44,3.44,0,0,0,3.63,3.63,5,5,0,0,0,4.5-3.27,10.72,10.72,0,0,0,.56-4Z"/><path class="cls-1" d="M329.1,156.52h3.57v1H321.76v-1h3.56V137.79h-3.56v-1h7.34Zm.51-31.23a2.7,2.7,0,1,1-2.65-2.7,2.73,2.73,0,0,1,2.65,2.7"/><polygon class="cls-1" points="350.63 143.1 345.88 157.94 344.61 157.94 336.8 137.79 334.05 137.79 334.05 136.82 344.97 136.82 344.97 137.79 340.94 137.79 346.5 152.54 351.65 136.82 352.52 136.82 358.49 152.54 363.29 137.79 359.96 137.79 359.96 136.82 366.66 136.82 366.66 137.79 364.45 137.79 357.83 158.04 356.6 158.04 350.63 143.1"/><path class="cls-1" d="M381.65,140.9c0-2.35-1.33-3.56-3.92-3.56-2,0-4.5,1.07-4.5,2,0,.15,0,.21.66,1a2,2,0,0,1,.56,1.43,1.93,1.93,0,0,1-1.94,2c-1.12,0-1.89-.91-1.89-2.3,0-2.85,3.47-5.19,7.66-5.19a8.63,8.63,0,0,1,5.66,1.73c1.12,1,1.49,2.1,1.49,4.39v12c0,1.69.35,2.25,1.42,2.25.56,0,.92-.15,1.68-.81l.47.66c-1.69,1.27-2.25,1.53-3.52,1.53A3.46,3.46,0,0,1,382,155.6a8,8,0,0,1-.36-2,7.25,7.25,0,0,1-6.93,4.44c-3.37,0-5.46-1.93-5.46-5s2.4-5.56,6.12-6.43a26.3,26.3,0,0,1,6.33-.61Zm0,6a13.55,13.55,0,0,0-5.05.76c-2.44.87-3.63,2.45-3.63,4.65a3.44,3.44,0,0,0,3.63,3.63,5,5,0,0,0,4.5-3.27,10.72,10.72,0,0,0,.56-4Z"/><path class="cls-1" d="M399.09,140.24c2.29-2.86,4.29-3.92,7.4-3.92a6.28,6.28,0,0,1,5.21,2.14c1,1.23,1.33,2.5,1.33,4.89v13.16h3.56v1h-11v-1h3.63V142c0-3.11-1.17-4.49-3.73-4.49a6.51,6.51,0,0,0-5.56,3.52c-.62,1.12-.87,3.11-.87,6.94v8.52h3.62v1h-11v-1h3.58V137.79h-3.58v-1h7.35Z"/></g></g></svg>